<svg width="90" height="72" viewBox="0 0 90 72" fill="none" xmlns="http://www.w3.org/2000/svg">
<path d="M25 21.4141L45 1.41406L65 21.4141V46.4141H25V21.4141Z" fill="url(#paint0_linear_235_3)" stroke="#4F46E5" stroke-width="2"/>
<path opacity="0.8" d="M53 31.4141H37V46.4141H53V31.4141Z" fill="white"/>
<path opacity="0.9" d="M41 19.4141C42.6569 19.4141 44 18.0709 44 16.4141C44 14.7572 42.6569 13.4141 41 13.4141C39.3431 13.4141 38 14.7572 38 16.4141C38 18.0709 39.3431 19.4141 41 19.4141Z" fill="white"/>
<path opacity="0.9" d="M49 19.4141C50.6569 19.4141 52 18.0709 52 16.4141C52 14.7572 50.6569 13.4141 49 13.4141C47.3431 13.4141 46 14.7572 46 16.4141C46 18.0709 47.3431 19.4141 49 19.4141Z" fill="white"/>
<path opacity="0.8" d="M0 31.4141L15 19.4141L30 31.4141V46.4141H0V31.4141Z" fill="#667EEA"/>
<path opacity="0.7" d="M16 36.4141H8V46.4141H16V36.4141Z" fill="white"/>
<path opacity="0.8" d="M60 31.4141L75 19.4141L90 31.4141V46.4141H60V31.4141Z" fill="#764BA2"/>
<path opacity="0.7" d="M78 36.4141H70V46.4141H78V36.4141Z" fill="white"/>
<path opacity="0.6" d="M10 55.4141C12.2091 55.4141 14 53.6232 14 51.4141C14 49.2049 12.2091 47.4141 10 47.4141C7.79086 47.4141 6 49.2049 6 51.4141C6 53.6232 7.79086 55.4141 10 55.4141Z" fill="#10B981"/>
<path d="M11 51.4141H9V59.4141H11V51.4141Z" fill="#059669"/>
<path opacity="0.6" d="M80 55.4141C82.2091 55.4141 84 53.6232 84 51.4141C84 49.2049 82.2091 47.4141 80 47.4141C77.7909 47.4141 76 49.2049 76 51.4141C76 53.6232 77.7909 55.4141 80 55.4141Z" fill="#10B981"/>
<path d="M81 51.4141H79V59.4141H81V51.4141Z" fill="#059669"/>
<path opacity="0.5" d="M45 46.4141C45 59.7474 45 68.0807 45 71.4141" stroke="#D1D5DB" stroke-width="3"/>
<defs>
<linearGradient id="paint0_linear_235_3" x1="25" y1="1.41406" x2="4493.97" y2="3973.83" gradientUnits="userSpaceOnUse">
<stop stop-color="#667EEA"/>
<stop offset="1" stop-color="#764BA2"/>
</linearGradient>
</defs>
</svg>
