<svg width="400" height="120" viewBox="0 0 400 120" xmlns="http://www.w3.org/2000/svg">
  <!-- Définition du dégradé -->
  <defs>
    <linearGradient id="houseGradient" x1="0%" y1="0%" x2="100%" y2="100%">
      <stop offset="0%" style="stop-color:#667eea;stop-opacity:1" />
      <stop offset="100%" style="stop-color:#764ba2;stop-opacity:1" />
    </linearGradient>
    <linearGradient id="textGradient" x1="0%" y1="0%" x2="100%" y2="0%">
      <stop offset="0%" style="stop-color:#4F46E5;stop-opacity:1" />
      <stop offset="100%" style="stop-color:#7C3AED;stop-opacity:1" />
    </linearGradient>
  </defs>
  
  <!-- Groupe de maisons stylisées formant un village -->
  <g id="village-icon">
    <!-- Maison centrale (plus grande) -->
    <path d="M 40 50 L 60 30 L 80 50 L 80 75 L 40 75 Z" fill="url(#houseGradient)" stroke="#4F46E5" stroke-width="2"/>
    <rect x="52" y="60" width="16" height="15" fill="#ffffff" opacity="0.8"/>
    <circle cx="56" cy="45" r="3" fill="#ffffff" opacity="0.9"/>
    <circle cx="64" cy="45" r="3" fill="#ffffff" opacity="0.9"/>
    
    <!-- Maison gauche (petite) -->
    <path d="M 15 60 L 30 48 L 45 60 L 45 75 L 15 75 Z" fill="#667eea" opacity="0.8"/>
    <rect x="23" y="65" width="8" height="10" fill="#ffffff" opacity="0.7"/>
    
    <!-- Maison droite (petite) -->
    <path d="M 75 60 L 90 48 L 105 60 L 105 75 L 75 75 Z" fill="#764ba2" opacity="0.8"/>
    <rect x="85" y="65" width="8" height="10" fill="#ffffff" opacity="0.7"/>
    
    <!-- Petit arbre stylisé -->
    <circle cx="25" cy="80" r="4" fill="#10b981" opacity="0.6"/>
    <rect x="24" y="80" width="2" height="8" fill="#059669"/>
    
    <!-- Petit arbre stylisé 2 -->
    <circle cx="95" cy="80" r="4" fill="#10b981" opacity="0.6"/>
    <rect x="94" y="80" width="2" height="8" fill="#059669"/>
    
    <!-- Chemin/route -->
    <path d="M 60 75 Q 60 95 60 100" stroke="#d1d5db" stroke-width="3" fill="none" opacity="0.5"/>
  </g>
  
  <!-- Texte "The Village" -->
  <text x="125" y="55" font-family="Arial, sans-serif" font-size="32" font-weight="bold" fill="url(#textGradient)">
    The Village
  </text>
  
  <!-- Sous-titre -->
  <text x="125" y="75" font-family="Arial, sans-serif" font-size="12" fill="#6B7280">
    Gestion familiale & communautaire
  </text>
</svg>